<svg version="1.1" id="Layer_1" xmlns:x="ns_extend;" xmlns:i="ns_ai;" xmlns:graph="ns_graphs;" xmlns="http://www.w3.org/2000/svg" xmlns:xlink="http://www.w3.org/1999/xlink" x="0px" y="0px" viewBox="0 0 152 43.7" style="enable-background:new 0 0 152 43.7;" xml:space="preserve">
 <style type="text/css">
  .st0{fill-rule:evenodd;clip-rule:evenodd;fill:#FCD72B;}
 </style>
 <metadata>
  <sfw xmlns="ns_sfw;">
   <slices>
   </slices>
   <sliceSourceBounds bottomLeftOrigin="true" height="43.7" width="152" x="124.3" y="-222.1">
   </sliceSourceBounds>
  </sfw>
 </metadata>
 <g>
  <desc>
   http://alpaca.markets/
  </desc>
  <path d="M68.9,32.3L67.4,28h-9.1l-1.4,4.3h-4.2l7.9-22.9h4.5L73,32.3H68.9z M59.4,24.5h6.8l-3.4-10.1h-0.1L59.4,24.5z">
  </path>
  <path d="M75.2,32.3V9.4H79v22.9H75.2z">
  </path>
  <path d="M91.6,16.3c2,0,3.6,0.8,4.9,2.3c1.3,1.5,2,3.5,2,6c0,2.4-0.7,4.4-2,5.9c-1.3,1.5-3,2.3-4.9,2.3c-1,0-1.9-0.2-2.8-0.6
		c-0.8-0.4-1.4-1-1.8-1.7h-0.1v9.2h-3.8v-23h3.5l0.2,2h0.1c0.4-0.7,1-1.3,1.9-1.7C89.6,16.5,90.5,16.3,91.6,16.3z M90.7,29.2
		c1.2,0,2.1-0.4,2.9-1.3c0.7-0.9,1.1-2,1.1-3.4c0-1.5-0.4-2.6-1.1-3.5c-0.7-0.9-1.7-1.3-2.9-1.3c-1.1,0-2,0.4-2.7,1.1
		c-0.7,0.7-1.1,1.6-1.1,2.6v2.1c0,1,0.4,1.9,1.1,2.6C88.7,28.9,89.6,29.2,90.7,29.2z">
  </path>
  <path d="M112.8,16.7h3.5v15.7h-3.5l-0.2-2h-0.1c-0.4,0.7-1.1,1.3-1.9,1.7c-0.8,0.4-1.8,0.7-2.8,0.7c-2,0-3.6-0.8-5-2.3
		c-1.3-1.5-2-3.5-2-5.9s0.7-4.4,2-5.9c1.3-1.5,3-2.3,5-2.3c1,0,2,0.2,2.8,0.7c0.9,0.4,1.5,1,1.9,1.7h0.1L112.8,16.7z M112.5,25.6
		v-2.1c0-1-0.4-1.9-1.1-2.6c-0.7-0.7-1.6-1.1-2.7-1.1c-1.2,0-2.1,0.4-2.9,1.3c-0.7,0.9-1.1,2-1.1,3.5c0,1.4,0.4,2.6,1.1,3.4
		c0.7,0.9,1.7,1.3,2.9,1.3c1.1,0,2-0.3,2.7-1C112.1,27.5,112.5,26.6,112.5,25.6z">
  </path>
  <path d="M127.2,32.7c-2.3,0-4.1-0.8-5.6-2.3c-1.4-1.5-2.2-3.5-2.2-5.9s0.7-4.4,2.2-5.9c1.5-1.5,3.3-2.3,5.6-2.3
		c1.9,0,3.6,0.5,4.9,1.6c1.3,1.1,2.1,2.5,2.4,4.3l-3.8,0.6c-0.1-0.9-0.5-1.7-1.2-2.2c-0.6-0.6-1.4-0.9-2.3-0.9c-1.1,0-2,0.4-2.8,1.3
		c-0.7,0.9-1.1,2-1.1,3.4c0,1.4,0.4,2.6,1.1,3.4c0.7,0.9,1.7,1.3,2.8,1.3c0.9,0,1.7-0.3,2.3-0.8c0.7-0.5,1.1-1.3,1.3-2.2l3.7,0.6
		c-0.3,1.8-1.1,3.2-2.4,4.3C130.7,32.2,129.1,32.7,127.2,32.7z">
  </path>
  <path d="M148.5,16.7h3.5v15.7h-3.5l-0.2-2h-0.1c-0.4,0.7-1.1,1.3-1.9,1.7c-0.8,0.4-1.8,0.7-2.8,0.7c-2,0-3.6-0.8-5-2.3
		c-1.3-1.5-2-3.5-2-5.9s0.7-4.4,2-5.9c1.3-1.5,3-2.3,5-2.3c1,0,2,0.2,2.8,0.7c0.9,0.4,1.5,1,1.9,1.7h0.1L148.5,16.7z M148.2,25.6
		v-2.1c0-1-0.4-1.9-1.1-2.6c-0.7-0.7-1.6-1.1-2.7-1.1c-1.2,0-2.1,0.4-2.9,1.3c-0.7,0.9-1.1,2-1.1,3.5c0,1.4,0.4,2.6,1.1,3.4
		c0.7,0.9,1.7,1.3,2.9,1.3c1.1,0,2-0.3,2.7-1C147.8,27.5,148.2,26.6,148.2,25.6z">
  </path>
  <path class="st0" d="M15.1,43l1.7-18.3h-0.2c-1.4,0-2.5-0.5-3.6-1.4c-1-0.9-1.7-2.2-2-3.5l3.2-2.1v0c0-1.4,0.6-2.8,1.5-3.9
		c1-1,2.3-1.7,3.8-1.7v0h1V8.5c0.7,0,1.3,0.2,1.9,0.7c0.5,0.4,0.9,1.1,1,1.8h0V8.5c0.5,0,1,0.1,1.5,0.4c0.4,0.3,0.8,0.6,1.1,1.1
		c0.3,0.5,0.4,1,0.4,1.5c0,0.5-0.2,1-0.4,1.5c0.9,0.6,1.6,1.4,2.1,2.3c0.5,0.9,0.8,2,0.8,3v22.1c0,0.3,0.1,0.6,0.4,0.9
		c0.2,0.2,0.5,0.4,0.9,0.4h1.4c-2,1-4.2,1.8-6.5,2.1C35.4,42.1,43.4,33,43.4,22c0-12.2-9.7-22-21.7-22C9.7,0,0,9.8,0,22
		C0,31.8,6.3,40.1,15.1,43z M17.7,18.1c-0.1,0.1-0.2,0.3-0.2,0.5l-0.1,0.7h1.3c0.4,0,0.7-0.1,0.9-0.4c0.2-0.3,0.4-0.6,0.4-1h-1.9
		C17.9,17.9,17.8,18,17.7,18.1z">
  </path>
 </g>
</svg>