<svg width="691" height="190" viewBox="0 0 691 190" fill="none" xmlns="http://www.w3.org/2000/svg">
<g clip-path="url(#clip0_518_162)">
<path d="M95.0064 170.013C136.431 170.013 170.013 136.431 170.013 95.0064C170.013 53.5815 136.431 20 95.0064 20C53.5815 20 20 53.5815 20 95.0064C20 136.431 53.5815 170.013 95.0064 170.013Z" fill="#0007B9"/>
<path d="M120.374 69.8457L92.6005 57.2588L73.7073 61.6475V62.9216L97.5425 75.5728L120.374 69.8457Z" fill="url(#paint0_linear_518_162)"/>
<path d="M128.751 110.231L94.4268 94.4399L66.5632 101.956V103.796L95.8811 119.935L128.751 110.257V110.231Z" fill="url(#paint1_linear_518_162)"/>
<path d="M73.7073 62.9217L92.6005 58.5201L113.707 53.6167V40.8496L73.7073 49.6527V62.9217Z" fill="white"/>
<path d="M120.373 69.8457L97.5414 75.5729L66.5632 83.3463V103.771L94.4268 96.255L120.373 89.2537V69.8457Z" fill="white"/>
<path d="M33.7197 138.224C40.3735 147.645 49.138 155.483 59.3439 161.004L128.752 138.481V110.257L95.869 119.936L33.7197 138.224Z" fill="white"/>
</g>
<path d="M279.561 82.2158C279.561 96.7697 268.008 108.336 253.005 108.336H239.336V133.892H224V56.0957H253.005C268.008 56.0957 279.561 67.6491 279.561 82.2158ZM264.341 82.2158C264.341 75.4325 259.558 70.4316 253.005 70.4316H239.336V93.9871H253.005C259.558 93.9871 264.341 88.8708 264.341 82.203V82.2158Z" fill="black"/>
<path d="M353.036 56.0957V133.892H337.816V101.668H308.926V133.892H293.59V56.0957H308.926V86.9859H337.816V56.0957H353.036Z" fill="black"/>
<path d="M417.496 119.889H386.49L381.823 133.892H365.269L392.491 56.0957H411.495L438.833 133.892H422.163L417.496 119.889ZM412.726 105.553L402.057 73.7656L391.389 105.553H412.726Z" fill="black"/>
<path d="M478.072 106.887H466.403V133.892H451.067V56.0957H482.188C496.524 56.0957 508.077 67.6491 508.077 81.8824C508.077 91.6662 501.96 100.437 493.074 104.553L510.295 133.892H493.741L478.072 106.887ZM466.403 93.4358H482.188C487.971 93.4358 492.741 88.3195 492.741 81.8824C492.741 75.4453 487.958 70.4316 482.188 70.4316H466.403V93.4358Z" fill="black"/>
<path d="M520.054 94.9999C520.054 72.2138 537.942 54.5439 560.394 54.5439C582.847 54.5439 600.85 72.2138 600.85 94.9999C600.85 117.786 582.847 135.456 560.394 135.456C537.942 135.456 520.054 117.671 520.054 94.9999ZM585.514 94.9999C585.514 79.9972 574.512 69.4441 560.394 69.4441C546.276 69.4441 535.274 79.9972 535.274 94.9999C535.274 110.003 546.276 120.453 560.394 120.453C574.512 120.453 585.514 109.9 585.514 94.9999Z" fill="black"/>
<path d="M611.275 116.222L624.393 108.554C627.176 115.773 632.613 120.44 642.281 120.44C651.949 120.44 654.732 116.555 654.732 112.221C654.732 106.438 649.513 104.22 637.947 100.886C626.06 97.4363 614.494 92.4354 614.494 77.6635C614.494 62.8916 626.714 54.5439 640.05 54.5439C653.386 54.5439 662.605 61.0964 667.837 71.9958L654.95 79.4459C652.167 73.5602 647.949 69.4441 640.063 69.4441C633.613 69.4441 629.843 72.778 629.843 77.2275C629.843 82.0104 632.843 84.5622 644.628 88.1141C656.963 91.9994 670.081 96.1155 670.081 112.003C670.081 126.557 658.412 135.456 641.858 135.456C625.304 135.456 615.52 127.788 611.301 116.235L611.275 116.222Z" fill="black"/>
<defs>
<linearGradient id="paint0_linear_518_162" x1="73.7073" y1="66.4222" x2="120.374" y2="66.4222" gradientUnits="userSpaceOnUse">
<stop offset="0.17" stop-color="white"/>
<stop offset="0.84" stop-color="white" stop-opacity="0"/>
</linearGradient>
<linearGradient id="paint1_linear_518_162" x1="66.5632" y1="107.181" x2="128.751" y2="107.181" gradientUnits="userSpaceOnUse">
<stop offset="0.17" stop-color="white"/>
<stop offset="0.84" stop-color="white" stop-opacity="0"/>
</linearGradient>
<clipPath id="clip0_518_162">
<rect width="150" height="150" fill="white" transform="translate(20 20)"/>
</clipPath>
</defs>
</svg>
